<svg width="266" height="53" viewBox="0 0 266 53" fill="none" xmlns="http://www.w3.org/2000/svg">
<rect width="266" height="53" rx="6" fill="white"/>
<path fill-rule="evenodd" clip-rule="evenodd" d="M67.9584 8.34223C68.8741 8.95998 69.1156 10.2031 68.4978 11.1187C68.2721 11.4533 67.9629 11.6978 67.6168 11.8434L67.6525 13.3877L74.7781 13.419L81.9047 26.7615L78.59 32.2626L79.8864 33.0034C80.0356 32.8654 80.2084 32.7479 80.4026 32.6577C81.4043 32.1922 82.5937 32.6269 83.0592 33.6286C83.5247 34.6303 83.09 35.8196 82.0883 36.2851C81.0866 36.7506 79.8973 36.316 79.4318 35.3143C79.2617 34.9483 79.2118 34.5573 79.2658 34.1856L77.9011 33.4059L73.905 40.0376L58.7786 39.9711L55.4339 33.7092L53.993 34.4285C54.0261 34.8026 53.9543 35.1902 53.764 35.5461C53.2431 36.5201 52.0312 36.8874 51.0572 36.3665C50.0832 35.8456 49.7159 34.6337 50.2368 33.6597C50.7577 32.6856 51.9696 32.3183 52.9436 32.8392C53.1324 32.9402 53.2984 33.0672 53.4396 33.2133L54.805 32.5317L51.6519 26.6286L59.6517 13.3525L66.3176 13.3818L66.2838 11.9219C66.0886 11.8654 65.8988 11.7779 65.7213 11.6582C64.8056 11.0404 64.5641 9.79734 65.1819 8.88167C65.7996 7.96599 67.0427 7.72448 67.9584 8.34223ZM69.1874 28.1846L74.4001 22.1034L66.5811 23.8407L58.7622 22.1033L63.9748 28.1846L66.5812 35.1349L69.1874 28.1846Z" fill="#0074CC"/>
<path d="M102.824 34.5V18.036H111.8C112.68 18.036 113.464 18.204 114.152 18.54C114.856 18.876 115.408 19.348 115.808 19.956C116.208 20.564 116.408 21.276 116.408 22.092C116.408 22.716 116.288 23.284 116.048 23.796C115.808 24.308 115.48 24.74 115.064 25.092C114.664 25.428 114.208 25.684 113.696 25.86V25.956C114.304 26.084 114.848 26.332 115.328 26.7C115.808 27.052 116.184 27.508 116.456 28.068C116.728 28.612 116.864 29.244 116.864 29.964C116.864 30.988 116.632 31.836 116.168 32.508C115.72 33.18 115.112 33.684 114.344 34.02C113.592 34.34 112.744 34.5 111.8 34.5H102.824ZM105.944 31.836H111.392C112.048 31.836 112.584 31.66 113 31.308C113.432 30.94 113.648 30.372 113.648 29.604C113.648 29.156 113.56 28.764 113.384 28.428C113.208 28.092 112.936 27.836 112.568 27.66C112.216 27.468 111.76 27.372 111.2 27.372H105.944V31.836ZM105.944 24.756H110.984C111.464 24.756 111.864 24.668 112.184 24.492C112.52 24.316 112.768 24.076 112.928 23.772C113.104 23.468 113.192 23.132 113.192 22.764C113.192 22.06 113 21.54 112.616 21.204C112.248 20.868 111.76 20.7 111.152 20.7H105.944V24.756ZM119.769 34.5V18.036H132.609V20.7H122.889V24.756H131.553V27.42H122.889V31.836H132.753V34.5H119.769ZM135.894 34.5V18.036H144.558C145.774 18.036 146.782 18.244 147.582 18.66C148.382 19.076 148.982 19.668 149.382 20.436C149.782 21.204 149.982 22.108 149.982 23.148C149.982 24.22 149.742 25.172 149.262 26.004C148.782 26.82 148.078 27.436 147.15 27.852L150.558 34.5H147.15L144.126 28.38H139.014V34.5H135.894ZM139.014 25.764H144.318C145.118 25.764 145.734 25.532 146.166 25.068C146.598 24.604 146.814 23.964 146.814 23.148C146.814 22.62 146.718 22.18 146.526 21.828C146.334 21.46 146.054 21.18 145.686 20.988C145.318 20.796 144.862 20.7 144.318 20.7H139.014V25.764ZM153.097 34.5V18.036H156.217V34.5H153.097ZM163.903 34.5V20.724H158.647V18.036H172.303V20.724H167.023V34.5H163.903ZM170.987 34.5L177.395 18.036H181.331L187.763 34.5H184.379L183.059 30.996H175.523L174.203 34.5H170.987ZM176.507 28.356H182.051L180.395 23.892C180.331 23.732 180.251 23.532 180.155 23.292C180.075 23.036 179.987 22.764 179.891 22.476C179.795 22.172 179.699 21.868 179.603 21.564C179.507 21.26 179.419 20.988 179.339 20.748H179.219C179.123 21.068 179.003 21.436 178.859 21.852C178.731 22.268 178.603 22.66 178.475 23.028C178.347 23.396 178.243 23.684 178.163 23.892L176.507 28.356ZM191.7 34.5V20.724H186.444V18.036H200.1V20.724H194.82V34.5H191.7ZM198.784 34.5L205.192 18.036H209.128L215.56 34.5H212.176L210.856 30.996H203.32L202 34.5H198.784ZM204.304 28.356H209.848L208.192 23.892C208.128 23.732 208.048 23.532 207.952 23.292C207.872 23.036 207.784 22.764 207.688 22.476C207.592 22.172 207.496 21.868 207.4 21.564C207.304 21.26 207.216 20.988 207.136 20.748H207.016C206.92 21.068 206.8 21.436 206.656 21.852C206.528 22.268 206.4 22.66 206.272 23.028C206.144 23.396 206.04 23.684 205.96 23.892L204.304 28.356Z" fill="#0074CC"/>
</svg>
