<svg width="266" height="59" viewBox="0 0 266 59" fill="none" xmlns="http://www.w3.org/2000/svg">
<rect width="266" height="58.0376" rx="6" fill="white"/>
<path fill-rule="evenodd" clip-rule="evenodd" d="M85.5648 13.3422C86.4805 13.96 86.722 15.2031 86.1042 16.1187C85.8785 16.4533 85.5693 16.6978 85.2232 16.8434L85.2589 18.3877L92.3845 18.419L99.5111 31.7615L96.1964 37.2626L97.4928 38.0034C97.642 37.8654 97.8148 37.7479 98.009 37.6577C99.0107 37.1922 100.2 37.6269 100.666 38.6286C101.131 39.6303 100.696 40.8196 99.6947 41.2851C98.693 41.7506 97.5037 41.316 97.0382 40.3143C96.8681 39.9483 96.8182 39.5573 96.8722 39.1856L95.5075 38.4059L91.5114 45.0376L76.385 44.9711L73.0403 38.7092L71.5994 39.4285C71.6325 39.8026 71.5607 40.1902 71.3704 40.5461C70.8495 41.5201 69.6376 41.8874 68.6636 41.3665C67.6896 40.8456 67.3223 39.6337 67.8432 38.6597C68.3641 37.6856 69.576 37.3183 70.55 37.8392C70.7388 37.9402 70.9048 38.0672 71.046 38.2133L72.4114 37.5317L69.2583 31.6286L77.2581 18.3525L83.924 18.3818L83.8902 16.9219C83.695 16.8654 83.5052 16.7779 83.3277 16.6582C82.412 16.0404 82.1705 14.7973 82.7883 13.8817C83.406 12.966 84.6491 12.7245 85.5648 13.3422ZM86.7938 33.1846L92.0065 27.1034L84.1875 28.8407L76.3686 27.1033L81.5812 33.1846L84.1876 40.1349L86.7938 33.1846Z" fill="#0074CC"/>
<path d="M114.853 35.1928V22.8448H121.405C122.089 22.8448 122.689 22.9708 123.205 23.2228C123.721 23.4628 124.123 23.8108 124.411 24.2668C124.711 24.7228 124.861 25.2568 124.861 25.8688C124.861 26.3368 124.771 26.7628 124.591 27.1468C124.423 27.5308 124.183 27.8548 123.871 28.1188C123.571 28.3828 123.229 28.5808 122.845 28.7128V28.7848C123.289 28.8808 123.685 29.0608 124.033 29.3248C124.393 29.5768 124.675 29.9128 124.879 30.3328C125.095 30.7408 125.203 31.2328 125.203 31.8088C125.203 32.5888 125.029 33.2308 124.681 33.7348C124.345 34.2388 123.895 34.6108 123.331 34.8508C122.767 35.0788 122.125 35.1928 121.405 35.1928H114.853ZM116.869 33.4648H121.243C121.795 33.4648 122.245 33.3208 122.593 33.0328C122.953 32.7328 123.133 32.2528 123.133 31.5928C123.133 31.1968 123.055 30.8608 122.899 30.5848C122.755 30.2968 122.533 30.0808 122.233 29.9368C121.933 29.7808 121.555 29.7028 121.099 29.7028H116.869V33.4648ZM116.869 28.0108H120.937C121.321 28.0108 121.651 27.9388 121.927 27.7948C122.203 27.6508 122.413 27.4468 122.557 27.1828C122.713 26.9188 122.791 26.6248 122.791 26.3008C122.791 25.7128 122.629 25.2808 122.305 25.0048C121.993 24.7168 121.579 24.5728 121.063 24.5728H116.869V28.0108ZM127.491 35.1928V22.8448H137.067V24.5728H129.507V28.0108H136.275V29.7388H129.507V33.4648H137.175V35.1928H127.491ZM139.62 35.1928V22.8448H146.118C146.994 22.8448 147.72 23.0008 148.296 23.3128C148.872 23.6248 149.304 24.0628 149.592 24.6268C149.88 25.1788 150.024 25.8268 150.024 26.5708C150.024 27.3988 149.838 28.1188 149.466 28.7308C149.094 29.3428 148.566 29.7928 147.882 30.0808L150.456 35.1928H148.26L145.92 30.4228H141.636V35.1928H139.62ZM141.636 28.7308H145.956C146.604 28.7308 147.102 28.5388 147.45 28.1548C147.81 27.7708 147.99 27.2368 147.99 26.5528C147.99 26.1328 147.912 25.7788 147.756 25.4908C147.6 25.1908 147.372 24.9628 147.072 24.8068C146.772 24.6508 146.4 24.5728 145.956 24.5728H141.636V28.7308ZM152.61 35.1928V22.8448H154.626V35.1928H152.61ZM160.574 35.1928V24.5728H156.488V22.8448H166.712V24.5728H162.59V35.1928H160.574ZM165.675 35.1928L170.517 22.8448H173.091L177.951 35.1928H175.791L174.693 32.3308H168.843L167.745 35.1928H165.675ZM169.491 30.6208H174.027L172.641 27.0028C172.605 26.8948 172.551 26.7448 172.479 26.5528C172.407 26.3608 172.329 26.1508 172.245 25.9228C172.173 25.6948 172.095 25.4668 172.011 25.2388C171.939 24.9988 171.873 24.7828 171.813 24.5908H171.705C171.633 24.8188 171.543 25.0888 171.435 25.4008C171.327 25.7128 171.219 26.0128 171.111 26.3008C171.015 26.5888 170.931 26.8228 170.859 27.0028L169.491 30.6208ZM181.018 35.1928V24.5728H176.932V22.8448H187.156V24.5728H183.034V35.1928H181.018ZM186.118 35.1928L190.96 22.8448H193.534L198.394 35.1928H196.234L195.136 32.3308H189.286L188.188 35.1928H186.118ZM189.934 30.6208H194.47L193.084 27.0028C193.048 26.8948 192.994 26.7448 192.922 26.5528C192.85 26.3608 192.772 26.1508 192.688 25.9228C192.616 25.6948 192.538 25.4668 192.454 25.2388C192.382 24.9988 192.316 24.7828 192.256 24.5908H192.148C192.076 24.8188 191.986 25.0888 191.878 25.4008C191.77 25.7128 191.662 26.0128 191.554 26.3008C191.458 26.5888 191.374 26.8228 191.302 27.0028L189.934 30.6208Z" fill="#0074CC"/>
</svg>
