<svg width="152" height="44" viewBox="0 0 152 44" fill="none" xmlns="http://www.w3.org/2000/svg">
<path fill-rule="evenodd" clip-rule="evenodd" d="M27.9584 5.34223C28.8741 5.95998 29.1156 7.20307 28.4978 8.11874C28.2721 8.45329 27.9629 8.69785 27.6168 8.84339L27.6525 10.3877L34.7781 10.419L41.9047 23.7615L38.59 29.2626L39.8864 30.0034C40.0356 29.8654 40.2084 29.7479 40.4026 29.6577C41.4043 29.1922 42.5937 29.6269 43.0592 30.6286C43.5247 31.6303 43.09 32.8196 42.0883 33.2851C41.0866 33.7506 39.8973 33.316 39.4318 32.3143C39.2617 31.9483 39.2118 31.5573 39.2658 31.1856L37.9011 30.4059L33.905 37.0376L18.7786 36.9711L15.4339 30.7092L13.993 31.4285C14.0261 31.8026 13.9543 32.1902 13.764 32.5461C13.2431 33.5201 12.0312 33.8874 11.0572 33.3665C10.0832 32.8456 9.71585 31.6337 10.2368 30.6597C10.7577 29.6856 11.9696 29.3183 12.9436 29.8392C13.1324 29.9402 13.2984 30.0672 13.4396 30.2133L14.805 29.5317L11.6519 23.6286L19.6517 10.3525L26.3176 10.3818L26.2838 8.92192C26.0886 8.8654 25.8988 8.77793 25.7213 8.65818C24.8056 8.04042 24.5641 6.79734 25.1819 5.88167C25.7996 4.96599 27.0427 4.72448 27.9584 5.34223ZM29.1874 25.1846L34.4001 19.1034L26.5811 20.8407L18.7622 19.1033L23.9748 25.1846L26.5812 32.1349L29.1874 25.1846Z" fill="#0074CC"/>
<path d="M57.458 29.5V17.152H64.01C64.694 17.152 65.294 17.278 65.81 17.53C66.326 17.77 66.728 18.118 67.016 18.574C67.316 19.03 67.466 19.564 67.466 20.176C67.466 20.644 67.376 21.07 67.196 21.454C67.028 21.838 66.788 22.162 66.476 22.426C66.176 22.69 65.834 22.888 65.45 23.02V23.092C65.894 23.188 66.29 23.368 66.638 23.632C66.998 23.884 67.28 24.22 67.484 24.64C67.7 25.048 67.808 25.54 67.808 26.116C67.808 26.896 67.634 27.538 67.286 28.042C66.95 28.546 66.5 28.918 65.936 29.158C65.372 29.386 64.73 29.5 64.01 29.5H57.458ZM59.474 27.772H63.848C64.4 27.772 64.85 27.628 65.198 27.34C65.558 27.04 65.738 26.56 65.738 25.9C65.738 25.504 65.66 25.168 65.504 24.892C65.36 24.604 65.138 24.388 64.838 24.244C64.538 24.088 64.16 24.01 63.704 24.01H59.474V27.772ZM59.474 22.318H63.542C63.926 22.318 64.256 22.246 64.532 22.102C64.808 21.958 65.018 21.754 65.162 21.49C65.318 21.226 65.396 20.932 65.396 20.608C65.396 20.02 65.234 19.588 64.91 19.312C64.598 19.024 64.184 18.88 63.668 18.88H59.474V22.318ZM70.0967 29.5V17.152H79.6727V18.88H72.1127V22.318H78.8807V24.046H72.1127V27.772H79.7807V29.5H70.0967ZM82.2256 29.5V17.152H88.7236C89.5996 17.152 90.3256 17.308 90.9016 17.62C91.4776 17.932 91.9096 18.37 92.1976 18.934C92.4856 19.486 92.6296 20.134 92.6296 20.878C92.6296 21.706 92.4436 22.426 92.0716 23.038C91.6996 23.65 91.1716 24.1 90.4876 24.388L93.0616 29.5H90.8656L88.5256 24.73H84.2416V29.5H82.2256ZM84.2416 23.038H88.5616C89.2096 23.038 89.7076 22.846 90.0556 22.462C90.4156 22.078 90.5956 21.544 90.5956 20.86C90.5956 20.44 90.5176 20.086 90.3616 19.798C90.2056 19.498 89.9776 19.27 89.6776 19.114C89.3776 18.958 89.0056 18.88 88.5616 18.88H84.2416V23.038ZM95.2158 29.5V17.152H97.2318V29.5H95.2158ZM103.179 29.5V18.88H99.0933V17.152H109.317V18.88H105.195V29.5H103.179ZM108.28 29.5L113.122 17.152H115.696L120.556 29.5H118.396L117.298 26.638H111.448L110.35 29.5H108.28ZM112.096 24.928H116.632L115.246 21.31C115.21 21.202 115.156 21.052 115.084 20.86C115.012 20.668 114.934 20.458 114.85 20.23C114.778 20.002 114.7 19.774 114.616 19.546C114.544 19.306 114.478 19.09 114.418 18.898H114.31C114.238 19.126 114.148 19.396 114.04 19.708C113.932 20.02 113.824 20.32 113.716 20.608C113.62 20.896 113.536 21.13 113.464 21.31L112.096 24.928ZM123.623 29.5V18.88H119.537V17.152H129.761V18.88H125.639V29.5H123.623ZM128.723 29.5L133.565 17.152H136.139L140.999 29.5H138.839L137.741 26.638H131.891L130.793 29.5H128.723ZM132.539 24.928H137.075L135.689 21.31C135.653 21.202 135.599 21.052 135.527 20.86C135.455 20.668 135.377 20.458 135.293 20.23C135.221 20.002 135.143 19.774 135.059 19.546C134.987 19.306 134.921 19.09 134.861 18.898H134.753C134.681 19.126 134.591 19.396 134.483 19.708C134.375 20.02 134.267 20.32 134.159 20.608C134.063 20.896 133.979 21.13 133.907 21.31L132.539 24.928Z" fill="#0074CC"/>
</svg>
